<?xml version="1.0" standalone="no"?>
<!DOCTYPE svg PUBLIC "-//W3C//DTD SVG 20010904//EN"
 "http://www.w3.org/TR/2001/REC-SVG-20010904/DTD/svg10.dtd">
<svg version="1.0" xmlns="http://www.w3.org/2000/svg"
 width="500.000000pt" height="500.000000pt" viewBox="0 0 500.000000 500.000000"
 preserveAspectRatio="xMidYMid meet">
<metadata>
Created by potrace 1.14, written by Peter Selinger 2001-2017
</metadata>
<g transform="translate(0.000000,500.000000) scale(0.100000,-0.100000)"
fill="#000000" stroke="none">
<path d="M2210 4974 c-198 -22 -387 -68 -585 -141 -98 -36 -264 -112 -286
-130 -8 -7 -19 -13 -24 -13 -11 0 -193 -112 -257 -158 -157 -113 -359 -299
-453 -417 -22 -28 -43 -52 -46 -55 -15 -13 -119 -160 -119 -169 0 -5 -3 -11
-7 -13 -8 -3 -63 -84 -63 -92 0 -3 -11 -21 -24 -40 -40 -59 -141 -274 -184
-391 -41 -112 -85 -269 -96 -339 -4 -21 -8 -41 -10 -45 -3 -4 -7 -25 -9 -46
-3 -22 -11 -74 -18 -115 -19 -117 -15 -626 6 -660 2 -3 6 -21 9 -40 16 -103
59 -290 76 -335 4 -11 29 -78 55 -150 47 -128 143 -335 171 -366 8 -8 14 -20
14 -25 0 -15 123 -197 197 -291 77 -100 259 -284 363 -369 69 -56 265 -194
275 -194 3 0 30 -16 61 -36 74 -48 277 -143 384 -182 136 -49 217 -72 305 -88
11 -2 38 -8 60 -13 67 -16 125 -24 260 -37 132 -12 516 -5 575 11 8 2 38 7 65
11 55 7 61 8 123 22 23 5 42 8 42 5 0 -3 6 0 14 6 8 6 18 11 22 10 5 -1 11 0
14 1 3 1 13 3 22 5 26 5 160 45 183 55 11 5 52 21 90 35 95 37 252 112 260
125 3 5 15 10 26 10 10 0 19 5 19 10 0 6 5 10 11 10 14 0 282 178 324 215 17
14 56 49 88 77 112 98 237 232 342 368 94 122 222 339 283 480 29 67 76 189
81 212 1 4 9 24 17 45 9 20 17 44 19 52 2 9 10 43 19 76 9 33 18 69 20 80 2
11 11 58 20 105 8 47 18 99 21 115 24 138 25 494 1 665 -9 62 -41 227 -50 258
-3 9 -7 28 -10 42 -13 68 -75 247 -126 365 -29 69 -73 159 -80 165 -3 3 -15
25 -28 50 -40 79 -159 263 -197 304 -14 15 -25 31 -25 36 0 4 -3 10 -7 12 -5
2 -33 32 -63 68 -86 103 -128 146 -235 239 -97 84 -249 201 -261 201 -3 0 -20
11 -38 25 -18 14 -36 25 -39 25 -3 0 -23 12 -44 26 -45 30 -279 146 -343 169
-102 37 -260 88 -310 100 -3 0 -14 4 -25 8 -11 3 -36 9 -55 12 -19 2 -66 11
-105 19 -38 8 -99 17 -135 21 -110 13 -469 12 -580 -1z"/>
</g>
</svg>
